# xmcd CD database file
#
# Track frame offsets:
#	150
#	20095
#	46915
#	68155
#	90685
#	111045
#	135715
#	157155
#	175277
#	194487
#
# Disc length: 2960 seconds
#
# Revision: 0
# Processed by: cddbd v1.5.1PL0 Copyright (c) Steve Scherf et al.
# Submitted via: CDex 1.50Beta7
#
DISCID=8c0b8e0a
DTITLE=花田裕之 - Nasty Wind
DYEAR=2005
DGENRE=Blues
TTITLE0=ハイウェイをおりて
TTITLE1=夏の日
TTITLE2=待ちつづけ
TTITLE3=Shine on
TTITLE4=シルクの夜
TTITLE5=お願いひとつ
TTITLE6=日に日に
TTITLE7=夢の旅路
TTITLE8=Free
TTITLE9=決めかねて
EXTD=YEAR: 2005
EXTT0=
EXTT1=
EXTT2=
EXTT3=
EXTT4=
EXTT5=
EXTT6=
EXTT7=
EXTT8=
EXTT9=
PLAYORDER=
